<?xml version="1.0" encoding="UTF-8"?>
<svg width="375px" height="667px" viewBox="0 0 375 667" version="1.1" xmlns="http://www.w3.org/2000/svg" xmlns:xlink="http://www.w3.org/1999/xlink">
    <!-- Generator: Sketch 51.2 (57519) - http://www.bohemiancoding.com/sketch -->
    <title>HOME </title>
    <desc>Created with Sketch.</desc>
    <defs></defs>
    <g id="HOME-" stroke="none" stroke-width="1" fill="none" fill-rule="evenodd">
        <text id="SIGN-UP" font-family=".SFNSDisplay-Semibold, .SF NS Display" font-size="24" font-weight="500" line-spacing="30" letter-spacing="1" fill="#FFFFFF">
            <tspan x="138.650391" y="638">SIGN U</tspan>
            <tspan x="221.431641" y="638">P</tspan>
        </text>
        <rect id="Rectangle" fill="#FCF922" x="0" y="0" width="375" height="667"></rect>
        <path d="M236.206026,359.886404 C235.414123,359.434634 234.609447,358.999596 233.801578,358.576727 C212.247767,347.294637 214.109378,339.308797 224.753767,332.971843 C235.398157,326.633369 227.680296,322.196284 223.289705,324.225448 C218.899114,326.25309 215.972585,324.986004 215.972585,324.986004 L216.770874,299.887651 C216.770874,299.887651 214.198786,281.759035 188.299088,281.034986 L188.299088,281 C188.024476,281 187.769023,281.01369 187.500798,281.016732 C187.230977,281.01369 186.975524,281 186.702509,281 L186.702509,281.034986 C160.801214,281.759035 158.229126,299.887651 158.229126,299.887651 L159.027415,324.986004 C159.027415,324.986004 156.100886,326.25309 151.710295,324.225448 C147.319704,322.196284 139.60344,326.633369 150.246233,332.971843 C160.890622,339.308797 162.75383,347.294637 141.200018,358.576727 C140.390553,358.999596 139.587474,359.434634 138.793974,359.886404 C137.270838,360.753438 130.619492,364.054252 132.257581,366.658396 C132.754117,367.449375 133.991466,367.745991 134.855215,367.943736 C137.205378,368.479168 139.766291,368.255564 142.177124,368.40007 C143.780089,368.4959 145.414986,368.719503 146.829554,369.445074 C148.866789,370.488557 151.025363,373.634217 149.847088,375.815492 C148.381429,378.530678 163.686232,375.12947 165.014585,375.815492 C169.579203,378.176258 173.784591,385.75444 187.101654,386.05562 L187.101654,386.083 C187.240556,386.083 187.363493,386.070831 187.500798,386.06931 C187.636507,386.070831 187.759444,386.083 187.899943,386.083 L187.899943,386.05562 C201.217005,385.75444 205.420797,378.176258 209.985415,375.815492 C214.642635,373.407571 223.755906,380.062438 223.556333,375.815492 C223.44138,373.36498 226.134808,370.488557 228.172042,369.445074 C229.586611,368.719503 231.221507,368.4959 232.824472,368.40007 C235.233709,368.255564 237.794622,368.479168 240.144785,367.943736 C241.010131,367.745991 242.245883,367.449375 242.742419,366.658396 C244.380508,364.054252 237.729162,360.753438 236.206026,359.886404" id="Fill-1" stroke="#000000" stroke-width="2" fill="#FFFFFF"></path>
    </g>
</svg>